<?xml version="1.0" encoding="UTF-8"?>
<svg width="1024px" height="1024px" viewBox="0 0 1024 1024" version="1.1" xmlns="http://www.w3.org/2000/svg" xmlns:xlink="http://www.w3.org/1999/xlink">
    <!-- Generator: Sketch 42 (36781) - http://www.bohemiancoding.com/sketch -->
    <title>atomdark</title>
    <desc>Created with Sketch.</desc>
    <defs>
        <linearGradient x1="50%" y1="0%" x2="50%" y2="100%" id="linearGradient-1">
            <stop stop-color="#A1266F" offset="0%"></stop>
            <stop stop-color="#B75757" offset="100%"></stop>
        </linearGradient>
    </defs>
    <g id="Page-1" stroke="none" stroke-width="1" fill="none" fill-rule="evenodd">
        <g id="dark">
            <g id="Group-2" transform="translate(77.000000, 7.000000)" stroke="#B75757" stroke-width="5" fill="url(#linearGradient-1)" fill-opacity="0.5">
                <path d="M848.836149,793.9533 C923.22343,687.717253 798.319071,471.912467 569.854454,311.939821 C341.389837,151.967174 95.8798655,108.405052 21.4925847,214.641099 C-52.8946961,320.877146 72.0096636,536.681931 300.47428,696.654578 C528.938897,856.627225 774.448869,900.189347 848.836149,793.9533 Z" id="Oval-Copy-8"></path>
                <path d="M21.4925847,793.9533 C95.8798655,900.189347 341.389837,856.627225 569.854454,696.654578 C798.319071,536.681931 923.22343,320.877146 848.836149,214.641099 C774.448869,108.405052 528.938897,151.967174 300.47428,311.939821 C72.0096636,471.912467 -52.8946961,687.717253 21.4925847,793.9533 Z" id="Oval-Copy-7"></path>
                <ellipse id="Oval-Copy-6" cx="436.825" cy="505" rx="234.825" ry="505"></ellipse>
            </g>
            <path d="M512.96288,476 C504.11552,476 495.26816,479.44064 488.8784,485.25696 C481.096,492.384 477,501.55904 477,511.88096 C477,531.7056 493.13824,547.84384 512.96288,547.84384 C532.78752,547.84384 548.84384,531.78752 548.84384,511.88096 C548.84384,502.95168 545.56704,494.432 539.58688,487.8784 C532.62368,480.17792 523.2848,476 512.96288,476 Z" id="â—" fill-opacity="0.75" fill="#FF7A7A" opacity="0.75"></path>
        </g>
    </g>
</svg>